<svg
  xmlns="http://www.w3.org/2000/svg"
  width="375"
  viewBox="0 0 375 375"
  height="375"
  version="1.0"
>
  <defs>
    <clipPath id="a">
      <path
        d="M 195 37.5 L 336.414062 37.5 L 336.414062 337.5 L 195 337.5 Z M 195 37.5"
      />
    </clipPath>
    <clipPath id="b">
      <path
        d="M 38.664062 37.5 L 180 37.5 L 180 337.5 L 38.664062 337.5 Z M 38.664062 37.5"
      />
    </clipPath>
  </defs>
  <g clip-path="url(#a)">
    <path
      fill="#E67451"
      d="M 227.867188 88.863281 C 220.179688 88.863281 213.542969 93.335938 210.410156 99.816406 L 195.5625 99.816406 L 195.5625 49.816406 C 207.636719 36.722656 227.160156 33.707031 242.617188 42.5625 C 258.074219 51.414062 265.355469 69.773438 260.167969 86.808594 C 276.5 81.140625 294.636719 85.996094 305.957031 99.058594 C 316.308594 111.007812 319.054688 127.628906 313.363281 142.132812 C 312.832031 143.476562 312.234375 144.8125 311.558594 146.117188 C 344.703125 158.589844 344.703125 216.429688 311.558594 228.902344 C 312.230469 230.210938 312.832031 231.535156 313.363281 232.886719 C 319.054688 247.386719 316.308594 264.003906 305.957031 275.953125 C 294.636719 289.015625 276.5 293.867188 260.167969 288.207031 C 265.355469 305.246094 258.078125 323.601562 242.617188 332.457031 C 227.160156 341.304688 207.636719 338.296875 195.5625 325.195312 L 195.5625 275.199219 L 210.410156 275.199219 C 213.546875 281.683594 220.179688 286.152344 227.867188 286.152344 C 238.566406 286.152344 247.246094 277.476562 247.246094 266.773438 C 247.246094 263.8125 246.585938 261.003906 245.390625 258.492188 C 242.28125 251.933594 235.601562 247.398438 227.867188 247.398438 C 220.125 247.398438 213.445312 251.933594 210.339844 258.492188 L 204.078125 258.492188 C 199.394531 258.492188 195.5625 254.65625 195.5625 249.972656 L 195.5625 203.054688 C 195.5625 198.261719 199.484375 194.339844 204.28125 194.339844 C 209.070312 194.339844 212.996094 198.261719 212.996094 203.054688 L 212.996094 221.324219 C 212.996094 228.722656 219.050781 234.78125 226.457031 234.78125 L 245.347656 234.78125 C 248.339844 241.613281 255.167969 246.378906 263.105469 246.378906 C 264.285156 246.378906 265.441406 246.277344 266.558594 246.070312 C 272.988281 244.914062 278.3125 240.597656 280.867188 234.78125 C 281.910156 232.398438 282.488281 229.765625 282.488281 227 C 282.488281 224.046875 281.828125 221.246094 280.640625 218.742188 C 278.011719 213.175781 272.800781 209.058594 266.558594 207.9375 C 265.441406 207.730469 264.285156 207.628906 263.105469 207.628906 C 255.359375 207.628906 248.671875 212.171875 245.566406 218.742188 L 237.847656 218.742188 C 233 218.742188 229.039062 214.777344 229.039062 209.929688 L 229.039062 165.089844 C 229.039062 160.246094 233 156.28125 237.847656 156.28125 L 245.566406 156.28125 C 248.667969 162.851562 255.359375 167.394531 263.105469 167.394531 C 264.285156 167.394531 265.441406 167.289062 266.558594 167.085938 C 272.800781 165.964844 278.007812 161.847656 280.640625 156.28125 C 281.828125 153.777344 282.488281 150.972656 282.488281 148.023438 C 282.488281 145.257812 281.910156 142.625 280.867188 140.242188 C 278.3125 134.425781 272.988281 130.105469 266.558594 128.945312 C 265.441406 128.746094 264.285156 128.640625 263.105469 128.640625 C 255.167969 128.640625 248.339844 133.410156 245.347656 140.242188 L 226.457031 140.242188 C 219.050781 140.242188 212.996094 146.296875 212.996094 153.699219 L 212.996094 171.96875 C 212.996094 176.757812 209.078125 180.675781 204.28125 180.675781 C 199.488281 180.675781 195.5625 176.757812 195.5625 171.96875 L 195.5625 125.050781 C 195.5625 120.367188 199.394531 116.535156 204.078125 116.535156 L 210.339844 116.535156 C 213.449219 123.09375 220.128906 127.628906 227.867188 127.628906 C 235.605469 127.628906 242.285156 123.09375 245.390625 116.535156 C 246.578125 114.023438 247.246094 111.214844 247.246094 108.253906 C 247.246094 97.554688 238.566406 88.878906 227.867188 88.878906 Z M 227.867188 88.863281"
      fill-rule="evenodd"
    />
  </g>
  <g clip-path="url(#b)">
    <path
      fill="#2F2D27"
      d="M 147.210938 88.863281 C 154.898438 88.863281 161.535156 93.335938 164.667969 99.816406 L 179.515625 99.816406 L 179.515625 49.816406 C 167.441406 36.722656 147.921875 33.707031 132.457031 42.5625 C 117 51.414062 109.71875 69.773438 114.910156 86.808594 C 98.582031 81.140625 80.441406 85.996094 69.121094 99.058594 C 58.765625 111.007812 56.023438 127.628906 61.714844 142.132812 C 62.242188 143.476562 62.84375 144.8125 63.519531 146.117188 C 30.375 158.589844 30.375 216.429688 63.519531 228.902344 C 62.847656 230.210938 62.242188 231.535156 61.714844 232.886719 C 56.023438 247.386719 58.765625 264.003906 69.121094 275.953125 C 80.441406 289.015625 98.578125 293.867188 114.910156 288.207031 C 109.71875 305.246094 117 323.601562 132.457031 332.457031 C 147.914062 341.304688 167.441406 338.296875 179.515625 325.195312 L 179.515625 275.199219 L 164.667969 275.199219 C 161.53125 281.683594 154.898438 286.152344 147.210938 286.152344 C 136.511719 286.152344 127.828125 277.476562 127.828125 266.773438 C 127.828125 263.8125 128.496094 261.003906 129.683594 258.492188 C 132.792969 251.933594 139.472656 247.398438 147.207031 247.398438 C 154.945312 247.398438 161.628906 251.933594 164.734375 258.492188 L 170.996094 258.492188 C 175.679688 258.492188 179.511719 254.65625 179.511719 249.972656 L 179.511719 203.054688 C 179.511719 198.261719 175.589844 194.339844 170.792969 194.339844 C 166.003906 194.339844 162.078125 198.261719 162.078125 203.054688 L 162.078125 221.324219 C 162.078125 228.722656 156.023438 234.78125 148.613281 234.78125 L 129.726562 234.78125 C 126.726562 241.613281 119.902344 246.378906 111.964844 246.378906 C 110.78125 246.378906 109.628906 246.277344 108.511719 246.070312 C 102.082031 244.914062 96.753906 240.597656 94.203125 234.78125 C 93.160156 232.398438 92.578125 229.765625 92.578125 227 C 92.578125 224.046875 93.242188 221.246094 94.425781 218.742188 C 97.054688 213.175781 102.265625 209.058594 108.511719 207.9375 C 109.628906 207.730469 110.78125 207.628906 111.964844 207.628906 C 119.710938 207.628906 126.398438 212.171875 129.5 218.742188 L 137.222656 218.742188 C 142.070312 218.742188 146.03125 214.777344 146.03125 209.929688 L 146.03125 165.089844 C 146.03125 160.246094 142.070312 156.28125 137.222656 156.28125 L 129.5 156.28125 C 126.398438 162.851562 119.710938 167.394531 111.964844 167.394531 C 110.78125 167.394531 109.628906 167.289062 108.511719 167.085938 C 102.265625 165.964844 97.0625 161.847656 94.425781 156.28125 C 93.242188 153.777344 92.578125 150.972656 92.578125 148.023438 C 92.578125 145.257812 93.160156 142.625 94.203125 140.242188 C 96.753906 134.425781 102.082031 130.105469 108.511719 128.945312 C 109.628906 128.746094 110.78125 128.640625 111.964844 128.640625 C 119.902344 128.640625 126.726562 133.410156 129.726562 140.242188 L 148.613281 140.242188 C 156.015625 140.242188 162.078125 146.296875 162.078125 153.699219 L 162.078125 171.96875 C 162.078125 176.757812 165.996094 180.675781 170.792969 180.675781 C 175.585938 180.675781 179.511719 176.757812 179.511719 171.96875 L 179.511719 125.050781 C 179.511719 120.367188 175.675781 116.535156 170.996094 116.535156 L 164.734375 116.535156 C 161.628906 123.09375 154.945312 127.628906 147.207031 127.628906 C 139.46875 127.628906 132.789062 123.09375 129.683594 116.535156 C 128.496094 114.023438 127.828125 111.214844 127.828125 108.253906 C 127.828125 97.554688 136.507812 88.878906 147.210938 88.878906 Z M 147.210938 88.863281"
      fill-rule="evenodd"
    />
  </g>
</svg>
