<svg xmlns="http://www.w3.org/2000/svg" width="810" viewBox="0 0 810 810" height="810" version="1.0"><defs><clipPath id="a"><path d="M 81.445312 132.839844 L 728.589844 132.839844 L 728.589844 677.289062 L 81.445312 677.289062 Z M 81.445312 132.839844"/></clipPath><clipPath id="b"><path d="M 192 276 L 714.429688 276 L 714.429688 677.289062 L 192 677.289062 Z M 192 276"/></clipPath></defs><path fill="#FFF" d="M 438.519531 438.265625 L 420.585938 355.359375 C 420.585938 355.359375 438.519531 329.371094 431.097656 310.808594 C 423.675781 292.25 402.648438 319.472656 402.648438 319.472656 C 402.648438 319.472656 396.046875 314.671875 393.371094 306.480469 C 389.425781 294.410156 387.460938 277.402344 374.199219 277.402344 C 351.929688 277.402344 298.742188 290.394531 298.742188 290.394531 L 304.050781 374.296875 C 305.894531 403.472656 337.460938 420.8125 363.066406 406.710938 L 363.066406 473.53125 L 386.566406 516.222656 L 421.203125 497.042969 Z M 438.519531 438.265625 L 420.585938 355.359375 C 420.585938 355.359375 438.519531 329.371094 431.097656 310.808594 C 423.675781 292.25 402.648438 319.472656 402.648438 319.472656 C 402.648438 319.472656 396.046875 314.671875 393.371094 306.480469 C 389.425781 294.410156 387.460938 277.402344 374.199219 277.402344 C 351.929688 277.402344 298.742188 290.394531 298.742188 290.394531 L 304.050781 374.296875 C 305.894531 403.472656 337.460938 420.8125 363.066406 406.710938 L 363.066406 473.53125 L 386.566406 516.222656 L 421.203125 497.042969 Z M 716.65625 675.847656 L 93.109375 675.847656 C 87.351562 675.847656 82.683594 671.175781 82.683594 665.417969 L 82.683594 144.503906 C 82.683594 138.742188 87.351562 134.070312 93.109375 134.070312 L 716.65625 134.070312 C 722.414062 134.070312 727.082031 138.742188 727.082031 144.503906 L 727.082031 665.417969 C 727.082031 671.175781 722.414062 675.847656 716.65625 675.847656"/><g clip-path="url(#a)"><path fill="#24221F" d="M 725.78125 657.410156 L 197.882812 674.609375 L 707.351562 674.609375 C 717.117188 674.609375 725.109375 667 725.78125 657.410156 Z M 725.847656 356.675781 L 725.847656 172.839844 L 83.917969 172.839844 L 83.917969 355.410156 C 89.21875 353.578125 106.386719 349.496094 133.984375 360.539062 C 154.554688 368.773438 161.679688 381.992188 169.21875 395.996094 C 174.019531 404.90625 178.992188 414.132812 187.730469 423.183594 C 201.167969 437.109375 219.519531 438.371094 237.261719 439.585938 C 249.375 440.414062 260.816406 441.203125 270.230469 445.914062 C 290.867188 456.230469 294.769531 476.5 295.40625 481.222656 C 309.945312 483.425781 487.207031 509.992188 511.097656 498.417969 C 522.3125 492.992188 527.125 482.167969 532.21875 470.714844 C 538.480469 456.621094 544.953125 442.054688 563.707031 435.191406 C 580.015625 429.222656 595.722656 429.332031 609.578125 429.464844 C 624.378906 429.570312 637.128906 429.683594 646.191406 422.269531 C 654.390625 415.558594 657.167969 406.355469 660.097656 396.609375 C 663.484375 385.359375 666.988281 373.730469 679.042969 364.800781 C 697.933594 350.800781 719.40625 354.964844 725.847656 356.675781 Z M 728.589844 657.316406 L 728.257812 657.328125 C 727.625 668.324219 718.503906 677.082031 707.351562 677.082031 L 121.9375 677.082031 L 115.710938 677.289062 L 102.546875 677.125 C 101.800781 677.113281 101.058594 677.0625 100.332031 676.980469 C 89.742188 675.929688 81.445312 666.976562 81.445312 656.117188 L 81.445312 153.804688 C 81.445312 142.242188 90.851562 132.835938 102.414062 132.835938 L 707.351562 132.835938 C 718.914062 132.835938 728.320312 142.242188 728.320312 153.804688 L 728.320312 357.4375 L 728.589844 357.535156 Z M 471.917969 226.460938 C 481.167969 239.335938 488.832031 267.503906 459.738281 271.5625 C 468.238281 296.945312 461.398438 322.546875 446.867188 342.984375 C 436.800781 357.152344 429.386719 367.132812 424.519531 373.539062 L 420.585938 355.359375 C 420.585938 355.359375 438.519531 329.371094 431.097656 310.808594 C 423.675781 292.25 402.648438 319.472656 402.648438 319.472656 C 402.648438 319.472656 396.046875 314.671875 393.371094 306.480469 C 389.425781 294.410156 387.460938 277.402344 374.199219 277.402344 C 351.929688 277.402344 298.742188 290.394531 298.742188 290.394531 L 298.933594 293.394531 C 298.058594 291.988281 297.5625 290.773438 297.5 289.777344 C 296.578125 273.382812 304.617188 246.464844 336.160156 224.503906 C 358.640625 208.847656 389.609375 208.605469 415.734375 221.851562 C 417.78125 215.296875 422.519531 206.558594 433.570312 203.363281 C 452.125 198.003906 462.433594 213.261719 471.917969 226.460938"/></g><path fill="#E67451" d="M 114.355469 674.738281 C 114.355469 674.738281 123.09375 572.933594 198.960938 530.863281 C 274.824219 488.789062 309.460938 473.945312 326.78125 464.867188 C 344.097656 455.792969 353.171875 432.695312 353.171875 432.695312 L 395.226562 451.667969 L 405.941406 480.542969 L 412.542969 450.019531 L 439.757812 431.046875 C 439.757812 431.046875 449.003906 458.179688 472.742188 463.21875 C 499.957031 468.992188 560.980469 482.191406 597.261719 489.617188 C 633.546875 497.042969 659.113281 534.988281 686.328125 579.53125 C 713.539062 624.078125 726.425781 646.355469 726.425781 646.355469 L 726.964844 654.417969 C 724.570312 670.894531 716.296875 674.738281 704.027344 674.738281 L 114.355469 674.738281"/><path fill="#FFF" d="M 146.546875 161.371094 C 142.449219 161.371094 139.125 158.050781 139.125 153.945312 C 139.125 149.847656 142.449219 146.527344 146.546875 146.527344 C 150.644531 146.527344 153.96875 149.847656 153.96875 153.945312 C 153.96875 158.050781 150.644531 161.371094 146.546875 161.371094 Z M 125.15625 161.371094 C 121.058594 161.371094 117.734375 158.050781 117.734375 153.945312 C 117.734375 149.847656 121.058594 146.527344 125.15625 146.527344 C 129.253906 146.527344 132.578125 149.847656 132.578125 153.945312 C 132.578125 158.050781 129.253906 161.371094 125.15625 161.371094 Z M 110.601562 153.945312 C 110.601562 149.847656 107.28125 146.527344 103.179688 146.527344 C 99.082031 146.527344 95.761719 149.847656 95.761719 153.945312 C 95.761719 158.050781 99.082031 161.371094 103.179688 161.371094 C 107.28125 161.371094 110.601562 158.050781 110.601562 153.945312 Z M 591.488281 492.5 L 582.835938 476.828125 C 582.835938 476.828125 607.984375 402.589844 612.929688 377.011719 C 617.878906 351.441406 616.230469 343.605469 611.285156 342.367188 C 606.335938 341.128906 603.035156 347.726562 603.035156 347.726562 C 603.035156 347.726562 596.441406 342.777344 590.667969 354.332031 C 590.667969 354.332031 584.070312 350.613281 579.121094 358.863281 C 574.175781 367.113281 556.445312 402.996094 556.445312 402.996094 C 556.445312 402.996094 556.445312 379.488281 548.199219 380.726562 C 539.953125 381.960938 541.597656 391.453125 538.304688 418.261719 C 535.003906 445.070312 552.734375 523.023438 552.734375 523.023438 Z M 332.757812 591.082031 C 332.757812 571.945312 317.25 556.4375 298.125 556.4375 C 278.992188 556.4375 263.488281 571.945312 263.488281 591.082031 C 263.488281 610.21875 278.992188 625.730469 298.125 625.730469 C 317.25 625.730469 332.757812 610.21875 332.757812 591.082031 Z M 539.335938 591.082031 C 539.335938 571.945312 523.824219 556.4375 504.699219 556.4375 C 485.566406 556.4375 470.0625 571.945312 470.0625 591.082031 C 470.0625 610.21875 485.566406 625.730469 504.699219 625.730469 C 523.824219 625.730469 539.335938 610.21875 539.335938 591.082031 Z M 403.882812 625.730469 C 384.757812 625.730469 369.246094 610.21875 369.246094 591.082031 C 369.246094 571.945312 384.757812 556.4375 403.882812 556.4375 C 423.011719 556.4375 438.519531 571.945312 438.519531 591.082031 C 438.519531 610.21875 423.011719 625.730469 403.882812 625.730469"/><g clip-path="url(#b)"><path fill="#24221F" d="M 324.050781 407.816406 C 335.859375 414.304688 349.84375 414.613281 361.855469 408.734375 L 362.238281 438.488281 L 364.710938 438.453125 L 364.3125 407.4375 L 390.867188 392.949219 L 389.6875 390.773438 L 364.277344 404.640625 L 364.277344 404.632812 L 362.46875 405.625 C 350.816406 412.042969 336.898438 412.046875 325.242188 405.648438 C 313.589844 399.246094 306.125 387.492188 305.28125 374.214844 L 300.039062 291.355469 C 307.480469 289.578125 354.011719 278.640625 374.199219 278.640625 C 384.226562 278.640625 387.285156 289.613281 390.246094 300.226562 C 390.878906 302.511719 391.507812 304.757812 392.195312 306.863281 C 394.964844 315.34375 401.636719 320.269531 401.921875 320.472656 L 402.894531 321.183594 L 403.625 320.230469 C 407.015625 315.84375 417.335938 304.65625 424.242188 305.628906 C 426.699219 305.976562 428.570312 307.820312 429.949219 311.269531 C 437.035156 328.996094 419.742188 354.402344 419.5625 354.65625 L 419.261719 355.097656 L 436.417969 433.949219 L 438.828125 433.429688 L 421.902344 355.613281 C 424.34375 351.945312 439.375 328.179688 432.246094 310.355469 C 430.53125 306.0625 427.949219 303.648438 424.578125 303.179688 C 416.136719 302.023438 405.457031 314.097656 402.464844 317.722656 C 400.625 316.125 396.476562 312.011719 394.546875 306.097656 C 393.871094 304.027344 393.253906 301.8125 392.625 299.5625 C 389.570312 288.59375 386.105469 276.167969 374.199219 276.167969 C 352.035156 276.167969 300.628906 288.660156 298.445312 289.191406 L 297.441406 289.4375 L 302.816406 374.375 C 303.707031 388.5 311.648438 401.003906 324.050781 407.816406 Z M 331.519531 591.082031 C 331.519531 572.65625 316.535156 557.671875 298.125 557.671875 C 279.707031 557.671875 264.722656 572.65625 264.722656 591.082031 C 264.722656 609.503906 279.707031 624.492188 298.125 624.492188 C 316.535156 624.492188 331.519531 609.503906 331.519531 591.082031 Z M 333.996094 591.082031 C 333.996094 610.867188 317.902344 626.964844 298.125 626.964844 C 278.34375 626.964844 262.253906 610.867188 262.253906 591.082031 C 262.253906 571.296875 278.34375 555.199219 298.125 555.199219 C 317.902344 555.199219 333.996094 571.296875 333.996094 591.082031 Z M 538.097656 591.082031 C 538.097656 572.65625 523.113281 557.671875 504.699219 557.671875 C 486.28125 557.671875 471.296875 572.65625 471.296875 591.082031 C 471.296875 609.503906 486.28125 624.492188 504.699219 624.492188 C 523.113281 624.492188 538.097656 609.503906 538.097656 591.082031 Z M 540.570312 591.082031 C 540.570312 610.867188 524.480469 626.964844 504.699219 626.964844 C 484.917969 626.964844 468.824219 610.867188 468.824219 591.082031 C 468.824219 571.296875 484.917969 555.199219 504.699219 555.199219 C 524.480469 555.199219 540.570312 571.296875 540.570312 591.082031 Z M 437.285156 591.082031 C 437.285156 572.65625 422.300781 557.671875 403.882812 557.671875 C 385.46875 557.671875 370.484375 572.65625 370.484375 591.082031 C 370.484375 609.503906 385.46875 624.492188 403.882812 624.492188 C 422.300781 624.492188 437.285156 609.503906 437.285156 591.082031 Z M 439.757812 591.082031 C 439.757812 610.867188 423.664062 626.964844 403.882812 626.964844 C 384.105469 626.964844 368.011719 610.867188 368.011719 591.082031 C 368.011719 571.296875 384.105469 555.199219 403.882812 555.199219 C 423.664062 555.199219 439.757812 571.296875 439.757812 591.082031 Z M 315.585938 307.707031 C 316.265625 307.789062 316.882812 307.320312 316.976562 306.644531 C 317.0625 305.964844 316.59375 305.347656 315.914062 305.253906 C 315.507812 305.199219 305.988281 303.984375 301.886719 308.082031 C 301.40625 308.566406 301.40625 309.347656 301.886719 309.828125 C 302.128906 310.074219 302.445312 310.191406 302.761719 310.191406 C 303.082031 310.191406 303.398438 310.074219 303.636719 309.828125 C 306.320312 307.144531 313.175781 307.390625 315.585938 307.707031 Z M 367.582031 299.285156 C 367.878906 298.667969 367.617188 297.925781 367.003906 297.628906 C 350.40625 289.648438 337.976562 299.546875 337.855469 299.644531 C 337.324219 300.078125 337.246094 300.855469 337.675781 301.382812 C 337.921875 301.683594 338.273438 301.839844 338.636719 301.839844 C 338.90625 301.839844 339.183594 301.75 339.414062 301.566406 C 339.871094 301.191406 350.785156 292.582031 365.933594 299.863281 C 366.546875 300.160156 367.285156 299.898438 367.582031 299.285156 Z M 306.164062 335.867188 C 306.421875 335.867188 306.683594 335.789062 306.902344 335.625 C 306.964844 335.582031 312.648438 331.4375 319.007812 333.929688 C 319.644531 334.175781 320.363281 333.863281 320.613281 333.230469 C 320.863281 332.589844 320.546875 331.875 319.914062 331.625 C 312.238281 328.621094 305.695312 333.433594 305.421875 333.644531 C 304.875 334.050781 304.765625 334.824219 305.175781 335.371094 C 305.414062 335.699219 305.789062 335.867188 306.164062 335.867188 Z M 342.15625 332.21875 C 342.253906 332.152344 351.597656 325.320312 360.976562 329.867188 C 361.589844 330.164062 362.332031 329.914062 362.632812 329.292969 C 362.929688 328.679688 362.671875 327.941406 362.058594 327.644531 C 351.296875 322.414062 341.097656 329.917969 340.675781 330.238281 C 340.128906 330.648438 340.019531 331.421875 340.429688 331.972656 C 340.667969 332.292969 341.042969 332.46875 341.414062 332.46875 C 341.675781 332.46875 341.9375 332.386719 342.15625 332.21875 Z M 324.078125 366.074219 C 324.765625 366.074219 325.457031 365.945312 326.125 365.679688 L 337.542969 361.148438 L 336.628906 358.847656 L 325.210938 363.382812 C 324.113281 363.820312 322.933594 363.605469 322.046875 362.808594 C 321.175781 362.015625 320.84375 360.863281 321.164062 359.726562 L 326.527344 340.847656 L 324.148438 340.167969 L 318.785156 359.046875 C 318.207031 361.082031 318.824219 363.226562 320.394531 364.648438 C 321.429688 365.582031 322.742188 366.074219 324.078125 366.074219 Z M 346.285156 382.027344 L 347.066406 384.375 C 347.460938 384.242188 356.832031 381.042969 361.652344 373.007812 C 365.253906 367 364.078125 364.164062 363.050781 363.003906 C 361.625 361.394531 359.082031 361.238281 356.066406 362.578125 C 350.585938 365.015625 337.679688 370.246094 337.554688 370.300781 L 338.476562 372.589844 C 338.609375 372.539062 351.550781 367.296875 357.074219 364.84375 C 358.980469 363.992188 360.558594 363.921875 361.195312 364.644531 C 361.90625 365.445312 361.894531 367.785156 359.53125 371.738281 C 355.1875 378.96875 346.371094 382 346.285156 382.027344 Z M 309.460938 584.691406 C 308.777344 584.691406 308.226562 585.246094 308.226562 585.929688 L 308.226562 592.269531 C 308.226562 597.984375 303.582031 602.628906 297.863281 602.628906 C 292.152344 602.628906 287.503906 597.984375 287.503906 592.269531 L 287.503906 585.617188 C 287.503906 584.933594 286.953125 584.378906 286.269531 584.378906 C 285.582031 584.378906 285.03125 584.933594 285.03125 585.617188 L 285.03125 592.269531 C 285.03125 598.925781 290.140625 604.347656 296.628906 604.980469 L 296.628906 608.410156 L 292.039062 608.410156 C 291.355469 608.410156 290.804688 608.960938 290.804688 609.640625 C 290.804688 610.324219 291.355469 610.882812 292.039062 610.882812 L 304.617188 610.882812 C 305.300781 610.882812 305.855469 610.324219 305.855469 609.640625 C 305.855469 608.960938 305.300781 608.410156 304.617188 608.410156 L 299.101562 608.410156 L 299.101562 604.980469 C 305.59375 604.347656 310.703125 598.925781 310.703125 592.269531 L 310.703125 585.929688 C 310.703125 585.246094 310.144531 584.691406 309.460938 584.691406 Z M 291.9375 592.164062 C 291.9375 595.492188 294.640625 598.199219 297.964844 598.199219 C 301.292969 598.199219 304 595.492188 304 592.164062 L 304 580.410156 C 304 577.082031 301.292969 574.378906 297.964844 574.378906 C 294.640625 574.378906 291.9375 577.082031 291.9375 580.410156 Z M 289.464844 592.164062 L 289.464844 580.410156 C 289.464844 575.71875 293.277344 571.902344 297.964844 571.902344 C 302.65625 571.902344 306.472656 575.71875 306.472656 580.410156 L 306.472656 592.164062 C 306.472656 596.855469 302.65625 600.671875 297.964844 600.671875 C 293.277344 600.671875 289.464844 596.855469 289.464844 592.164062 Z M 519.851562 583.964844 L 498.824219 583.964844 L 498.824219 599.742188 L 519.851562 599.742188 Z M 495.472656 591.390625 L 487.691406 585.765625 L 487.691406 597.011719 Z M 522.324219 582.730469 L 522.324219 600.980469 C 522.324219 601.664062 521.769531 602.222656 521.085938 602.222656 L 497.585938 602.222656 C 496.902344 602.222656 496.347656 601.664062 496.347656 600.980469 L 496.347656 593.8125 L 487.175781 600.4375 C 486.960938 600.589844 486.710938 600.671875 486.449219 600.671875 C 486.261719 600.671875 486.066406 600.625 485.886719 600.535156 C 485.472656 600.324219 485.214844 599.902344 485.214844 599.4375 L 485.214844 583.347656 C 485.214844 582.882812 485.472656 582.460938 485.886719 582.246094 C 486.300781 582.039062 486.796875 582.074219 487.175781 582.347656 L 496.347656 588.96875 L 496.347656 582.730469 C 496.347656 582.046875 496.902344 581.492188 497.585938 581.492188 L 521.085938 581.492188 C 521.769531 581.492188 522.324219 582.046875 522.324219 582.730469 Z M 416.570312 579.84375 C 416.082031 579.355469 415.300781 579.355469 414.816406 579.84375 L 403.882812 590.777344 L 392.953125 579.84375 C 392.464844 579.355469 391.683594 579.355469 391.199219 579.84375 C 390.71875 580.324219 390.71875 581.105469 391.199219 581.589844 L 402.136719 592.527344 L 391.199219 603.460938 C 390.71875 603.949219 390.71875 604.730469 391.199219 605.214844 C 391.445312 605.457031 391.761719 605.574219 392.078125 605.574219 C 392.394531 605.574219 392.710938 605.457031 392.953125 605.214844 L 403.882812 594.273438 L 414.816406 605.214844 C 415.058594 605.457031 415.378906 605.574219 415.691406 605.574219 C 416.007812 605.574219 416.324219 605.457031 416.570312 605.214844 C 417.050781 604.730469 417.050781 603.949219 416.570312 603.460938 L 405.632812 592.527344 L 416.570312 581.589844 C 417.050781 581.105469 417.050781 580.324219 416.570312 579.84375 Z M 427.382812 637.484375 C 427.382812 635.4375 425.722656 633.773438 423.675781 633.773438 C 421.632812 633.773438 419.964844 635.4375 419.964844 637.484375 C 419.964844 639.53125 421.632812 641.199219 423.675781 641.199219 C 425.722656 641.199219 427.382812 639.53125 427.382812 637.484375 Z M 429.863281 637.484375 C 429.863281 640.898438 427.085938 643.671875 423.675781 643.671875 C 420.269531 643.671875 417.488281 640.898438 417.488281 637.484375 C 417.488281 634.074219 420.269531 631.300781 423.675781 631.300781 C 427.085938 631.300781 429.863281 634.074219 429.863281 637.484375 Z M 411.777344 515.636719 C 411.777344 517.683594 413.441406 519.351562 415.492188 519.351562 C 417.535156 519.351562 419.199219 517.683594 419.199219 515.636719 C 419.199219 513.589844 417.535156 511.925781 415.492188 511.925781 C 413.441406 511.925781 411.777344 513.589844 411.777344 515.636719 Z M 409.304688 515.636719 C 409.304688 512.226562 412.078125 509.453125 415.492188 509.453125 C 418.898438 509.453125 421.671875 512.226562 421.671875 515.636719 C 421.671875 519.050781 418.898438 521.824219 415.492188 521.824219 C 412.078125 521.824219 409.304688 519.050781 409.304688 515.636719 Z M 194.792969 560.449219 C 194.617188 559.785156 193.9375 559.410156 193.28125 559.570312 C 192.621094 559.75 192.226562 560.421875 192.40625 561.085938 L 222.710938 674.308594 C 222.859375 674.859375 223.359375 675.222656 223.902344 675.222656 C 224.007812 675.222656 224.117188 675.214844 224.222656 675.183594 C 224.882812 675.003906 225.277344 674.328125 225.101562 673.667969 Z M 589.902344 492.183594 L 581.746094 477.429688 C 581.582031 477.125 581.546875 476.761719 581.660156 476.433594 C 581.910156 475.691406 606.839844 401.976562 611.71875 376.78125 C 615.878906 355.285156 615.644531 344.734375 610.984375 343.566406 C 607.539062 342.71875 604.910156 346.921875 604.28125 348.023438 C 604.378906 351.308594 604.5 375.644531 588.246094 391.914062 C 571.359375 408.796875 569.648438 426.4375 569.632812 426.617188 C 569.578125 427.261719 569.035156 427.746094 568.402344 427.746094 C 568.367188 427.746094 568.332031 427.742188 568.296875 427.742188 C 567.613281 427.683594 567.109375 427.082031 567.167969 426.402344 C 567.234375 425.644531 568.980469 407.679688 586.492188 390.160156 C 601.371094 375.277344 601.855469 352.566406 601.8125 348.441406 C 601.171875 348.121094 599.917969 347.675781 598.367188 348.054688 C 596.019531 348.628906 593.769531 350.945312 591.839844 354.757812 C 591.894531 354.914062 591.914062 355.078125 591.898438 355.25 C 591.847656 355.90625 590.460938 371.515625 575.167969 392.183594 C 574.925781 392.515625 574.550781 392.683594 574.175781 392.683594 C 573.914062 392.683594 573.660156 392.605469 573.433594 392.445312 C 572.886719 392.035156 572.769531 391.261719 573.179688 390.710938 C 587.6875 371.09375 589.347656 355.914062 589.429688 355.121094 C 587.828125 354.515625 583.671875 353.6875 580.183594 359.503906 C 575.316406 367.613281 557.730469 403.191406 557.550781 403.546875 C 557.296875 404.058594 556.726562 404.339844 556.164062 404.203125 C 555.605469 404.070312 555.207031 403.574219 555.207031 402.996094 C 555.207031 398.4375 554.375 385.886719 550.585938 382.621094 C 550.027344 382.144531 549.460938 381.917969 548.816406 381.917969 C 548.671875 381.917969 548.53125 381.925781 548.382812 381.945312 C 543.277344 382.714844 542.652344 387.066406 541.246094 402.0625 C 540.832031 406.496094 540.316406 412.015625 539.527344 418.410156 C 536.582031 442.378906 550.835938 508.707031 553.515625 520.835938 Z M 713.847656 664.476562 C 713.625 664.632812 713.375 664.710938 713.125 664.710938 C 712.742188 664.710938 712.359375 664.527344 712.121094 664.191406 L 591.234375 494.277344 L 553.523438 523.980469 L 537.808594 536.949219 L 610.933594 675.265625 C 611.253906 675.871094 611.019531 676.617188 610.417969 676.941406 C 610.234375 677.039062 610.035156 677.082031 609.839844 677.082031 C 609.398438 677.082031 608.964844 676.84375 608.746094 676.425781 L 535.144531 537.214844 C 534.875 536.695312 535.003906 536.054688 535.453125 535.683594 L 551.359375 522.554688 C 549.480469 514.199219 533.917969 443.769531 537.070312 418.109375 C 537.859375 411.75 538.347656 406.480469 538.785156 401.832031 C 540.1875 386.808594 540.769531 380.585938 548.015625 379.5 C 549.535156 379.273438 550.984375 379.703125 552.199219 380.75 C 555.890625 383.929688 557.097656 392.527344 557.496094 398.101562 C 562.390625 388.253906 574.121094 364.792969 578.058594 358.230469 C 582.269531 351.207031 587.722656 351.988281 590.089844 352.761719 C 592.300781 348.722656 594.90625 346.328125 597.835938 345.636719 C 599.835938 345.164062 601.511719 345.613281 602.570312 346.070312 C 603.871094 344.039062 607.074219 340.03125 611.582031 341.164062 C 618.136719 342.800781 618.855469 352.917969 614.144531 377.25 C 609.457031 401.488281 586.425781 470.039062 584.179688 476.710938 L 592.542969 491.847656 L 714.132812 662.753906 C 714.53125 663.304688 714.398438 664.082031 713.847656 664.476562 Z M 372.132812 483.84375 C 372.175781 483.84375 372.222656 483.839844 372.261719 483.832031 C 372.605469 483.800781 372.910156 483.628906 373.113281 483.359375 L 394.554688 455.308594 C 394.976562 454.765625 394.867188 453.988281 394.324219 453.570312 C 393.785156 453.160156 393.007812 453.261719 392.59375 453.804688 L 371.949219 480.8125 L 343.253906 456.09375 C 342.738281 455.648438 341.957031 455.707031 341.511719 456.222656 C 341.0625 456.738281 341.125 457.519531 341.640625 457.96875 L 371.328125 483.542969 C 371.550781 483.734375 371.84375 483.84375 372.132812 483.84375 Z M 455.34375 454.804688 C 455.890625 455.21875 455.996094 455.996094 455.589844 456.539062 L 437.855469 480.046875 C 437.632812 480.351562 437.273438 480.53125 436.894531 480.542969 C 436.886719 480.542969 436.882812 480.542969 436.871094 480.542969 C 436.503906 480.542969 436.15625 480.378906 435.914062 480.09375 L 413.652344 453.285156 C 413.21875 452.761719 413.289062 451.980469 413.816406 451.539062 C 414.339844 451.105469 415.117188 451.175781 415.558594 451.703125 L 436.824219 477.308594 L 453.613281 455.046875 C 454.027344 454.5 454.800781 454.398438 455.34375 454.804688"/></g></svg>