<svg
  xmlns="http://www.w3.org/2000/svg"
  width="810"
  viewBox="0 0 810 1536"
  height="1536"
  version="1.0"
>
  <defs>
    <clipPath id="a">
      <path
        d="M 184 81 L 645 81 L 645 1454.921875 L 184 1454.921875 Z M 184 81"
      />
    </clipPath>
    <clipPath id="b">
      <path
        d="M 198 145 L 674.320312 145 L 674.320312 1411 L 198 1411 Z M 198 145"
      />
    </clipPath>
  </defs>
  <path fill="transparent" d="M-81 -153.6H891V1689.6000000000001H-81z" />
  <path fill="transparent" d="M-81 -153.6H891V1689.6000000000001H-81z" />
  <path fill="transparent" d="M-81 -153.6H891V1689.6000000000001H-81z" />
  <g clip-path="url(#a)">
    <path
      fill="#24221F"
      d="M 221.527344 1274.5 L 184.605469 1331.148438 L 208.609375 1366.859375 L 222.140625 1360.089844 L 241.136719 1402.726562 C 243.433594 1407.878906 248.550781 1411.203125 254.191406 1411.203125 L 318.757812 1411.203125 C 308.910156 1392.730469 270.136719 1384.722656 270.136719 1384.722656 L 266.453125 1351.472656 Z M 452.898438 1399.957031 C 452.898438 1417.515625 460.289062 1454.910156 460.289062 1454.910156 L 516.59375 1441.980469 L 513.355469 1433.667969 L 641.914062 1414.242188 C 644.742188 1413.816406 645.246094 1409.890625 642.589844 1408.828125 C 620.183594 1399.902344 584.429688 1398.109375 584.429688 1398.109375 L 534.125 1375.480469 C 534.125 1375.480469 452.898438 1382.414062 452.898438 1399.957031 Z M 233.835938 165.242188 C 207.066406 151.996094 195.996094 97.503906 199.996094 94.429688 C 203.996094 91.347656 214.457031 98.433594 214.457031 98.433594 C 213.832031 86.425781 215.070312 83.035156 221.527344 85.496094 C 227.988281 87.957031 236.601562 96.894531 236.601562 96.894531 C 236.601562 96.894531 236.296875 79.03125 243.992188 81.1875 C 251.675781 83.339844 273.527344 97.503906 273.527344 97.503906 C 273.527344 97.503906 291.375 93.808594 311.675781 90.121094 C 331.984375 86.425781 362.753906 87.957031 371.367188 140.917969 C 379.980469 193.867188 340.289062 212.648438 340.289062 212.648438 C 340.289062 212.648438 260.605469 178.476562 233.835938 165.242188"
    />
  </g>
  <path
    fill="#FFF"
    d="M 649.191406 521.445312 L 649.191406 597.800781 L 659.652344 597.800781 L 659.652344 677.230469 L 528.824219 676.945312 C 529.140625 677.035156 529.46875 677.132812 529.742188 677.230469 C 544.816406 682.765625 504.589844 716.640625 464.277344 716.640625 C 436.261719 716.640625 414.519531 710.253906 403.851562 706.347656 C 427.921875 789.257812 460.714844 903.566406 475.054688 959.855469 C 499.046875 1054.0625 456.59375 1081.777344 456.59375 1081.777344 L 534.125 1375.480469 L 445.507812 1408.730469 L 371.671875 1196.308594 L 266.453125 1351.472656 L 211.066406 1268.34375 C 270.136719 1118.714844 319.980469 1057.757812 319.980469 1057.757812 C 319.980469 1057.757812 275.679688 941.378906 229.53125 817.617188 C 183.378906 693.855469 212.914062 608.882812 212.914062 608.882812 L 375.367188 608.882812 C 375.367188 608.882812 386.625 647.074219 401.832031 699.402344 L 441.824219 668.917969 L 447.203125 677.230469 C 447.203125 677.230469 449.445312 677.046875 453.171875 676.78125 L 447.203125 676.773438 L 347.058594 521.445312 L 364.285156 521.445312 L 367.367188 483.269531 L 376.601562 483.269531 L 350.140625 400.757812 L 338.445312 400.757812 L 330.257812 320.910156 L 278.75 288.390625 L 278.75 255.140625 L 254.898438 258.75 C 240.65625 260.917969 227.792969 250.011719 227.5625 235.605469 L 226.140625 146.769531 C 238.449219 171.082031 298.613281 153.015625 303.988281 173.238281 C 309.214844 192.949219 315.0625 195.714844 315.0625 195.714844 C 315.0625 195.714844 335.371094 170.164062 345.515625 175.710938 C 352.195312 179.34375 348.105469 197.34375 344.511719 209.269531 L 625.8125 209.269531 C 625.8125 209.269531 635.035156 243.742188 625.8125 270.835938 L 619.65625 270.835938 C 619.65625 270.835938 621.503906 282.539062 621.503906 304.699219 C 621.503906 326.871094 611.042969 335.488281 611.042969 335.488281 L 611.042969 347.195312 C 611.042969 347.195312 621.503906 350.265625 623.351562 357.660156 C 625.199219 365.042969 623.351562 402.605469 623.351562 402.605469 L 637.507812 402.605469 C 637.507812 402.605469 662.289062 442.277344 668.964844 469.796875 C 675.808594 498.046875 671.347656 531.300781 671.347656 531.300781 C 671.347656 531.300781 654.109375 521.445312 649.191406 521.445312"
  />
  <path
    fill="#E67451"
    d="M 441.007812 677.230469 L 384.59375 723.410156 L 256.070312 607.261719 L 211.757812 607.03125 L 199.996094 529.449219 C 163.070312 474.027344 135.382812 385.367188 179.6875 344.734375 C 223.988281 304.085938 270.136719 261.605469 270.136719 261.605469 L 332.53125 302.019531 L 330.945312 326.28125 L 338.445312 400.757812 L 350.140625 400.757812 L 376.589844 483.269531 L 367.367188 483.269531 L 364.285156 521.445312 L 347.058594 521.445312 L 444.898438 672.921875 L 441.007812 677.230469"
  />
  <g clip-path="url(#b)">
    <path
      fill="#24221F"
      d="M 280.53125 180.492188 C 273.382812 172.921875 260.191406 175.382812 260.058594 175.414062 C 259.207031 175.578125 258.375 175.019531 258.210938 174.15625 C 258.039062 173.304688 258.59375 172.472656 259.457031 172.308594 C 260.058594 172.1875 274.488281 169.464844 282.828125 178.3125 C 283.429688 178.949219 283.398438 179.953125 282.761719 180.554688 C 282.457031 180.839844 282.0625 180.984375 281.679688 180.984375 C 281.265625 180.984375 280.839844 180.820312 280.53125 180.492188 Z M 418.5 280.351562 C 418.476562 280.351562 418.457031 280.339844 418.433594 280.339844 C 418.085938 280.339844 417.769531 280.484375 417.503906 280.679688 L 412.203125 282.429688 L 404.53125 268.726562 L 453.566406 268.726562 Z M 670.046875 528.75 C 665.117188 526.027344 653.488281 519.859375 649.191406 519.859375 C 648.316406 519.859375 647.617188 520.570312 647.617188 521.445312 L 647.617188 597.800781 C 647.617188 598.675781 648.316406 599.386719 649.191406 599.386719 L 658.066406 599.386719 L 658.066406 675.644531 L 448.066406 675.1875 L 445.203125 670.746094 C 445.160156 670.558594 445.105469 670.375 444.996094 670.210938 L 381.980469 572.6875 L 349.964844 523.03125 L 359.867188 523.03125 C 360.121094 523.203125 360.414062 523.335938 360.753906 523.335938 L 470.277344 523.335938 C 471.152344 523.335938 471.863281 522.625 471.863281 521.75 C 471.863281 520.875 471.152344 520.175781 470.277344 520.175781 L 365.976562 520.175781 L 368.820312 484.855469 L 376.601562 484.855469 C 377.105469 484.855469 377.574219 484.617188 377.871094 484.199219 C 378.175781 483.796875 378.253906 483.269531 378.101562 482.789062 L 352.304688 402.34375 L 517.511719 402.34375 C 518.382812 402.34375 519.09375 401.632812 519.09375 400.757812 C 519.09375 399.890625 518.382812 399.179688 517.511719 399.179688 L 439.050781 399.179688 C 438.777344 391.054688 435.203125 379.972656 431.039062 367.199219 C 425.878906 351.351562 420.019531 333.367188 420.019531 318.253906 L 420.019531 283.175781 L 463.4375 268.792969 L 512.285156 268.792969 C 513.148438 268.792969 513.859375 268.082031 513.859375 267.207031 C 513.859375 266.332031 513.148438 265.621094 512.285156 265.621094 L 463.699219 265.621094 C 463.589844 265.597656 463.480469 265.566406 463.359375 265.566406 L 419.40625 265.566406 L 419.40625 216.652344 C 419.40625 215.777344 418.695312 215.074219 417.824219 215.074219 C 416.949219 215.074219 416.25 215.777344 416.25 216.652344 L 416.25 265.566406 L 401.832031 265.566406 C 401.261719 265.566406 400.75 265.859375 400.464844 266.339844 C 400.179688 266.832031 400.167969 267.425781 400.441406 267.917969 L 410.082031 285.121094 C 410.367188 285.636719 410.902344 285.929688 411.460938 285.929688 C 411.636719 285.929688 411.800781 285.910156 411.964844 285.855469 L 416.859375 284.222656 L 416.859375 318.253906 C 416.859375 333.871094 422.796875 352.105469 428.03125 368.183594 C 431.933594 380.171875 435.59375 391.480469 435.878906 399.179688 L 339.875 399.179688 L 331.730469 319.828125 L 337.1875 284.003906 C 337.207031 283.894531 337.21875 283.785156 337.207031 283.675781 L 332.738281 210.84375 L 624.578125 210.84375 C 626.019531 216.980469 632.152344 245.886719 624.664062 269.25 L 619.65625 269.25 C 619.199219 269.25 618.761719 269.457031 618.457031 269.808594 C 618.160156 270.160156 618.027344 270.628906 618.09375 271.089844 C 618.117188 271.199219 619.917969 282.945312 619.917969 304.710938 C 619.917969 325.746094 610.125 334.1875 610.027344 334.277344 C 609.679688 334.570312 609.460938 335.019531 609.460938 335.488281 L 609.460938 345.609375 L 448.898438 345.609375 C 448.023438 345.609375 447.3125 346.320312 447.3125 347.195312 C 447.3125 348.070312 448.023438 348.769531 448.898438 348.769531 L 610.738281 348.769531 C 610.75 348.769531 610.761719 348.769531 610.769531 348.769531 C 612.050781 349.183594 620.324219 352.09375 621.8125 358.042969 C 623.230469 363.710938 622.402344 389.621094 621.777344 402.527344 C 621.746094 402.964844 621.910156 403.382812 622.203125 403.699219 C 622.5 404.015625 622.914062 404.191406 623.351562 404.191406 L 636.621094 404.191406 C 640.03125 409.757812 661.390625 445.261719 667.425781 470.179688 C 673.085938 493.542969 670.890625 520.734375 670.046875 528.75 Z M 266.464844 1348.636719 L 212.839844 1268.15625 C 264.976562 1136.300781 310.320312 1073.070312 319.5 1060.972656 L 369.902344 1196.089844 Z M 670.507812 469.433594 C 663.839844 441.96875 639.859375 403.402344 638.839844 401.773438 C 638.558594 401.304688 638.042969 401.019531 637.507812 401.019531 L 625.003906 401.019531 C 625.339844 393.570312 626.566406 363.984375 624.882812 357.277344 C 623.199219 350.5625 615.558594 347.140625 612.617188 346.054688 L 612.617188 336.191406 C 614.914062 333.957031 623.078125 324.605469 623.078125 304.710938 C 623.078125 287.386719 621.976562 276.511719 621.472656 272.421875 L 625.8125 272.421875 C 626.488281 272.421875 627.089844 271.984375 627.308594 271.351562 C 636.589844 244.117188 627.722656 210.285156 627.339844 208.851562 C 627.15625 208.164062 626.523438 207.683594 625.8125 207.683594 L 346.03125 207.683594 C 351.417969 187.808594 351.503906 177.164062 346.28125 174.320312 C 336.28125 168.863281 319.433594 187.9375 314.824219 193.507812 C 313.0625 191.746094 309.148438 186.550781 305.507812 172.832031 C 302.644531 162.039062 286.761719 161.097656 269.941406 160.089844 C 252.890625 159.074219 233.5625 157.914062 227.550781 146.046875 C 227.222656 145.390625 226.480469 145.050781 225.757812 145.226562 C 225.046875 145.402344 224.558594 146.046875 224.566406 146.789062 L 225.976562 235.628906 C 226.097656 242.957031 229.367188 249.867188 234.953125 254.605469 C 240.539062 259.332031 247.894531 261.417969 255.128906 260.316406 L 277.175781 256.976562 L 277.175781 266.15625 C 277.175781 267.019531 277.875 267.730469 278.75 267.730469 C 279.625 267.730469 280.335938 267.019531 280.335938 266.15625 L 280.335938 256.464844 L 289.574219 254.84375 C 290.425781 254.691406 291.003906 253.871094 290.851562 253.019531 C 290.699219 252.15625 289.902344 251.585938 289.027344 251.726562 L 278.488281 253.578125 C 278.476562 253.578125 278.476562 253.578125 278.476562 253.578125 L 254.660156 257.1875 C 248.320312 258.148438 241.894531 256.320312 236.996094 252.1875 C 232.109375 248.042969 229.234375 241.992188 229.136719 235.585938 L 227.804688 151.898438 C 236.480469 161.261719 254.035156 162.3125 269.753906 163.253906 C 285.398438 164.183594 300.175781 165.066406 302.460938 173.652344 C 307.726562 193.496094 313.71875 196.832031 314.386719 197.148438 C 315.050781 197.464844 315.839844 197.28125 316.296875 196.699219 C 321.359375 190.34375 337.417969 173.097656 344.761719 177.101562 C 346.847656 178.238281 349.339844 183.75 342.75 207.683594 L 331.066406 207.683594 C 330.628906 207.683594 330.210938 207.855469 329.90625 208.183594 C 329.613281 208.503906 329.457031 208.929688 329.480469 209.367188 L 334.039062 283.699219 L 329.644531 312.53125 L 299.75 328.675781 L 253.28125 280.59375 C 252.671875 279.957031 251.675781 279.949219 251.042969 280.550781 C 250.417969 281.160156 250.398438 282.15625 251.007812 282.792969 L 298.304688 331.738281 C 298.613281 332.054688 299.027344 332.21875 299.441406 332.21875 C 299.707031 332.21875 299.957031 332.164062 300.195312 332.035156 L 329.042969 316.449219 L 328.574219 319.554688 C 328.550781 319.683594 328.550781 319.816406 328.5625 319.957031 L 336.871094 400.921875 C 336.957031 401.730469 337.632812 402.34375 338.445312 402.34375 L 348.980469 402.34375 L 374.425781 481.683594 L 367.367188 481.683594 C 366.535156 481.683594 365.859375 482.320312 365.792969 483.140625 L 362.828125 519.859375 L 347.84375 519.859375 L 253.621094 374.035156 C 253.152344 373.300781 252.167969 373.09375 251.433594 373.574219 C 250.703125 374.046875 250.496094 375.03125 250.964844 375.761719 L 380.15625 575.695312 L 420.796875 638.730469 L 356.488281 693.890625 C 355.835938 694.457031 355.746094 695.453125 356.328125 696.121094 C 356.632812 696.480469 357.082031 696.667969 357.519531 696.667969 C 357.890625 696.667969 358.25 696.535156 358.546875 696.285156 L 422.535156 641.410156 L 445.882812 677.625 C 446.175781 678.074219 446.667969 678.347656 447.203125 678.347656 L 447.203125 678.804688 L 496.226562 678.804688 C 496.097656 679.125 496.042969 679.472656 496.140625 679.824219 C 496.371094 680.664062 497.253906 681.15625 498.085938 680.929688 C 501.441406 680.019531 510.90625 678.203125 514.320312 680.808594 C 515.09375 681.410156 515.464844 682.207031 515.464844 683.335938 C 515.464844 691.011719 493.835938 699.5 480.191406 703.042969 C 479.351562 703.261719 478.835938 704.128906 479.054688 704.96875 C 479.242188 705.679688 479.886719 706.152344 480.585938 706.152344 C 480.71875 706.152344 480.847656 706.140625 480.992188 706.105469 C 484.839844 705.101562 518.625 695.96875 518.625 683.335938 C 518.625 681.507812 517.96875 679.976562 516.777344 678.804688 L 529.742188 678.804688 C 530.703125 678.804688 531.0625 679.023438 531.152344 679.089844 C 531.195312 679.125 531.273438 679.1875 531.273438 679.484375 C 531.273438 685.839844 498.6875 715.054688 464.277344 715.054688 C 442.371094 715.054688 418.488281 709.96875 404.695312 705.605469 L 404.039062 707.691406 L 402.695312 708.074219 C 426.707031 791.585938 464.550781 925.039062 473.515625 960.246094 C 493.976562 1040.519531 465.394531 1072.085938 457.597656 1078.957031 L 381.839844 732.925781 L 378.746094 733.605469 L 454.8125 1081.042969 L 454.769531 1081.078125 L 532.234375 1374.507812 L 446.472656 1406.683594 L 372.132812 1192.808594 L 372.089844 1192.882812 L 321.785156 1058.054688 L 321.457031 1057.199219 C 321.019531 1056.03125 276.628906 939.410156 231.003906 817.058594 C 188.355469 702.671875 210.949219 620.648438 214.074219 610.46875 L 256.089844 610.46875 L 256.089844 610.257812 C 256.222656 610.195312 256.355469 610.140625 256.464844 610.03125 C 257.097656 609.429688 257.121094 608.433594 256.519531 607.796875 C 256.386719 607.644531 256.234375 607.480469 256.089844 607.328125 L 256.089844 607.292969 L 256.070312 607.292969 C 235.453125 585.167969 201.691406 529.199219 201.351562 528.628906 C 200.890625 527.886719 199.917969 527.644531 199.175781 528.09375 C 198.433594 528.542969 198.191406 529.515625 198.640625 530.269531 C 198.96875 530.816406 230.851562 583.667969 251.796875 607.292969 L 211.789062 607.292969 L 211.417969 608.367188 C 211.121094 609.21875 182.234375 695.300781 228.042969 818.175781 C 271.636719 935.058594 314.089844 1046.710938 318.1875 1057.484375 C 312.449219 1064.824219 264.714844 1128.152344 209.605469 1267.765625 L 209.296875 1268.53125 L 266.441406 1354.304688 L 371.214844 1199.796875 L 444.023438 1409.253906 L 444.558594 1410.785156 L 536.015625 1376.464844 L 458.398438 1082.421875 C 464.792969 1077.578125 498.882812 1046.972656 476.585938 959.472656 C 467.6875 924.523438 430.414062 793.085938 406.378906 709.433594 C 420.652344 713.652344 443.34375 718.214844 464.277344 718.214844 C 498.765625 718.214844 534.441406 689.449219 534.441406 679.484375 C 534.441406 679.132812 534.386719 678.828125 534.320312 678.542969 L 659.652344 678.804688 C 660.066406 678.804688 660.472656 678.640625 660.769531 678.347656 C 661.0625 678.050781 661.238281 677.648438 661.238281 677.230469 L 661.238281 597.800781 C 661.238281 596.925781 660.527344 596.214844 659.652344 596.214844 L 650.777344 596.214844 L 650.777344 523.28125 C 655.269531 524.460938 664.855469 529.40625 670.5625 532.675781 C 671.019531 532.941406 671.566406 532.949219 672.046875 532.722656 C 672.519531 532.480469 672.847656 532.03125 672.910156 531.507812 C 672.957031 531.179688 677.339844 497.644531 670.507812 469.433594 Z M 268.988281 215.984375 C 269.699219 216.496094 269.855469 217.480469 269.351562 218.191406 C 262.574219 227.644531 248.789062 229.613281 248.199219 229.6875 C 248.132812 229.699219 248.058594 229.699219 247.992188 229.699219 C 247.214844 229.699219 246.527344 229.128906 246.429688 228.332031 C 246.308594 227.46875 246.910156 226.667969 247.773438 226.550781 C 247.90625 226.539062 260.804688 224.679688 266.78125 216.34375 C 267.285156 215.632812 268.269531 215.46875 268.988281 215.984375 Z M 232.097656 217.164062 C 231.816406 216.695312 231.792969 216.105469 232.054688 215.613281 L 239.203125 201.984375 C 239.609375 201.21875 240.570312 200.910156 241.335938 201.316406 C 242.113281 201.730469 242.40625 202.683594 242.003906 203.460938 L 236.066406 214.757812 L 244.757812 214.757812 C 245.632812 214.757812 246.339844 215.46875 246.339844 216.34375 C 246.339844 217.21875 245.632812 217.929688 244.757812 217.929688 L 233.453125 217.929688 C 232.898438 217.929688 232.382812 217.636719 232.097656 217.164062 Z M 230.632812 174.847656 C 229.847656 175.195312 228.90625 174.847656 228.546875 174.035156 C 228.195312 173.238281 228.546875 172.308594 229.34375 171.949219 C 229.640625 171.816406 236.527344 168.851562 242.746094 173.773438 C 243.421875 174.308594 243.542969 175.304688 242.996094 175.996094 C 242.691406 176.390625 242.222656 176.597656 241.761719 176.597656 C 241.410156 176.597656 241.074219 176.488281 240.777344 176.257812 C 236.042969 172.503906 230.679688 174.8125 230.632812 174.847656 Z M 500.316406 616.382812 L 464.792969 599.386719 L 540.476562 599.386719 Z M 617.199219 596.214844 L 548.3125 596.214844 C 548.292969 596.214844 548.269531 596.214844 548.238281 596.214844 L 457.816406 596.214844 C 457.085938 596.214844 456.441406 596.730469 456.277344 597.449219 C 456.125 598.171875 456.472656 598.90625 457.140625 599.222656 L 499.59375 619.546875 C 499.8125 619.65625 500.042969 619.699219 500.285156 619.699219 C 500.492188 619.699219 500.699219 619.65625 500.894531 619.578125 L 548.597656 599.386719 L 617.199219 599.386719 C 618.074219 599.386719 618.78125 598.675781 618.78125 597.800781 C 618.78125 596.925781 618.074219 596.214844 617.199219 596.214844 Z M 626.542969 505.957031 L 572.316406 482.386719 L 644.742188 482.386719 Z M 647.957031 479.222656 L 425.824219 479.222656 C 424.949219 479.222656 424.238281 479.933594 424.238281 480.808594 C 424.238281 481.683594 424.949219 482.386719 425.824219 482.386719 L 564.871094 482.386719 C 565.027344 482.59375 565.246094 482.769531 565.496094 482.878906 L 626.414062 509.347656 C 626.609375 509.445312 626.828125 509.476562 627.035156 509.476562 C 627.515625 509.476562 627.988281 509.257812 628.292969 508.867188 L 649.214844 481.773438 C 649.585938 481.300781 649.652344 480.644531 649.378906 480.109375 C 649.117188 479.5625 648.570312 479.222656 647.957031 479.222656"
    />
  </g>
  <path
    fill="#24221F"
    d="M 234.601562 188.167969 C 232.699219 188.167969 231.148438 189.722656 231.148438 191.636719 C 231.148438 193.550781 232.699219 195.101562 234.601562 195.101562 C 236.515625 195.101562 238.066406 193.550781 238.066406 191.636719 C 238.066406 189.722656 236.515625 188.167969 234.601562 188.167969 Z M 267.832031 192.335938 C 267.832031 194.238281 266.289062 195.792969 264.378906 195.792969 C 262.464844 195.792969 260.914062 194.238281 260.914062 192.335938 C 260.914062 190.421875 262.464844 188.867188 264.378906 188.867188 C 266.289062 188.867188 267.832031 190.421875 267.832031 192.335938"
  />
</svg>
